<?xml version="1.0" encoding="UTF-8" standalone="no"?>
<!DOCTYPE svg PUBLIC "-//W3C//DTD SVG 1.1//EN" "http://www.w3.org/Graphics/SVG/1.1/DTD/svg11.dtd">
<svg xmlns="http://www.w3.org/2000/svg" xmlns:xlink="http://www.w3.org/1999/xlink" version="1.1" width="500" height="500" viewBox="0 0 500 500" xml:space="preserve">
<desc>Created with Fabric.js 3.6.3</desc>
<defs>
</defs>
<g transform="matrix(8.775844172421255 0 0 8.775844172421255 250 250)">
<g style="">
		<g transform="matrix(1 0 0 1 1.7649748309079243 -4.0328072947691425)" clip-path="url(#CLIPPATH_57132)">
<linearGradient id="SVGID_57131" gradientUnits="userSpaceOnUse" gradientTransform="matrix(1 0 0 1 -27.05 -32.4)" x1="0" y1="0" x2="54.1" y2="64.8">
<stop offset="0%" style="stop-color:rgb(127,0,255);stop-opacity: 1"/>
<stop offset="100%" style="stop-color:rgb(225,0,255);stop-opacity: 1"/>
</linearGradient>
<clipPath id="CLIPPATH_57132">
	<rect transform="matrix(1 0 0 1 -1.7649748309079247 4.032807294769141)" x="-24.503123934966496" y="-20.653974198056048" rx="0" ry="0" width="49.00624786993299" height="41.307948396112096"/>
</clipPath>
<g style="">
		<g transform="matrix(1 0 0 1 -10.000000000000004 4.644869504205936)">
<linearGradient id="SVGID_57126" gradientUnits="userSpaceOnUse" gradientTransform="matrix(-0.12 1.09 -1.02 -0.11 69.25 13.09)" x1="11.4" y1="56.31" x2="42.5" y2="39.79">
<stop offset="0%" style="stop-color:rgb(87,46,255);stop-opacity: 1"/>
<stop offset="50%" style="stop-color:rgb(54,76,160);stop-opacity: 1"/>
<stop offset="100%" style="stop-color:rgb(87,46,255);stop-opacity: 1"/>
</linearGradient>
<path style="stroke: none; stroke-width: 1; stroke-dasharray: none; stroke-linecap: butt; stroke-dashoffset: 0; stroke-linejoin: miter; stroke-miterlimit: 4; fill: url(#SVGID_57126); fill-rule: nonzero; opacity: 1;" transform=" translate(-17.049999999999997, -37.044869504205934)" d="M 20 57.4 h -0.2 L 12.1 35.5 L 6.6 19.7 a 7.6 7.6 0 0 1 0.9 -0.9 a 8.9 8.9 0 0 1 6.7 -2.1 L 22 38.9 l 5.5 15.6 A 9.1 9.1 0 0 1 20 57.4 Z" stroke-linecap="round"/>
</g>
		<g transform="matrix(1 0 0 1 -19.215726305119606 4.692061539847025)">
<linearGradient id="SVGID_57127" gradientUnits="userSpaceOnUse" gradientTransform="matrix(-0.11 0.99 -0.99 -0.11 67.84 17.15)" x1="6.91" y1="61.09" x2="46.14" y2="53.49">
<stop offset="0%" style="stop-color:rgb(108,195,244);stop-opacity: 1"/>
<stop offset="17%" style="stop-color:rgb(128,171,233);stop-opacity: 1"/>
<stop offset="53%" style="stop-color:rgb(178,109,205);stop-opacity: 1"/>
<stop offset="100%" style="stop-color:rgb(250,21,166);stop-opacity: 1"/>
</linearGradient>
<path style="stroke: none; stroke-width: 1; stroke-dasharray: none; stroke-linecap: butt; stroke-dashoffset: 0; stroke-linejoin: miter; stroke-miterlimit: 4; fill: url(#SVGID_57127); fill-rule: nonzero; opacity: 1;" transform=" translate(-7.834273694880395, -37.09206153984702)" d="M 5.3 57.5 a 4.4 4.4 0 0 1 -3.9 -4.9 l 3.1 -28 a 9 9 0 0 1 2.4 -5.2 l 0.8 -0.8 a 8.9 8.9 0 0 1 6.6 -1.9 L 10.2 53.6 a 4.7 4.7 0 0 1 -1.6 3 A 4.3 4.3 0 0 1 5.3 57.5 Z" stroke-linecap="round"/>
</g>
		<g transform="matrix(1 0 0 1 8.599999999999998 10.402951928249813)">
<linearGradient id="SVGID_57128" gradientUnits="userSpaceOnUse" gradientTransform="matrix(-0.12 1.11 -1.06 -0.12 69.45 12.05)" x1="20.54" y1="35.95" x2="40.62" y2="20.96">
<stop offset="0%" style="stop-color:rgb(87,46,255);stop-opacity: 1"/>
<stop offset="50%" style="stop-color:rgb(54,76,160);stop-opacity: 1"/>
<stop offset="100%" style="stop-color:rgb(87,46,255);stop-opacity: 1"/>
</linearGradient>
<path style="stroke: none; stroke-width: 1; stroke-dasharray: none; stroke-linecap: butt; stroke-dashoffset: 0; stroke-linejoin: miter; stroke-miterlimit: 4; fill: url(#SVGID_57128); fill-rule: nonzero; opacity: 1;" transform=" translate(-35.65, -42.80295192824981)" d="M 39.2 57.3 L 30.7 41.6 L 24.9 30.9 l 0.5 -0.5 A 8.4 8.4 0 0 1 32 28.3 l 0.2 0.2 l 8.4 15.7 l 5.8 10.6 l -0.5 0.4 A 8.5 8.5 0 0 1 39.2 57.3 Z" stroke-linecap="round"/>
</g>
		<g transform="matrix(1 0 0 1 17.415163370336742 15.012762999614104)">
<linearGradient id="SVGID_57129" gradientUnits="userSpaceOnUse" gradientTransform="matrix(-0.11 0.99 -1 -0.11 67.91 17.16)" x1="41.25" y1="16.79" x2="24.4" y2="24.03">
<stop offset="0%" style="stop-color:rgb(108,195,244);stop-opacity: 1"/>
<stop offset="17%" style="stop-color:rgb(128,171,233);stop-opacity: 1"/>
<stop offset="53%" style="stop-color:rgb(178,109,205);stop-opacity: 1"/>
<stop offset="100%" style="stop-color:rgb(250,21,166);stop-opacity: 1"/>
</linearGradient>
<path style="stroke: none; stroke-width: 1; stroke-dasharray: none; stroke-linecap: butt; stroke-dashoffset: 0; stroke-linejoin: miter; stroke-miterlimit: 4; fill: url(#SVGID_57129); fill-rule: nonzero; opacity: 1;" transform=" translate(-44.46516337033674, -47.4127629996141)" d="M 39.1 57.3 l 1.8 -15.9 a 4.4 4.4 0 0 1 1.7 -3 a 4 4 0 0 1 3.2 -0.9 a 4.4 4.4 0 0 1 4 4.9 L 49 49.5 a 9 9 0 0 1 -2.9 5.6 c -0.1 0.1 -0.3 0.2 -0.4 0.4 A 8.9 8.9 0 0 1 39.1 57.3 Z" stroke-linecap="round"/>
</g>
		<g transform="matrix(1 0 0 1 -1.150000000000004 10.37508922163761)">
<linearGradient id="SVGID_57130" gradientUnits="userSpaceOnUse" gradientTransform="matrix(-0.11 0.96 -1 -0.11 67.76 18.5)" x1="16.33" y1="41.96" x2="43.34" y2="35.4">
<stop offset="0%" style="stop-color:rgb(108,195,244);stop-opacity: 1"/>
<stop offset="17%" style="stop-color:rgb(128,171,233);stop-opacity: 1"/>
<stop offset="53%" style="stop-color:rgb(178,109,205);stop-opacity: 1"/>
<stop offset="100%" style="stop-color:rgb(250,21,166);stop-opacity: 1"/>
</linearGradient>
<path style="stroke: none; stroke-width: 1; stroke-dasharray: none; stroke-linecap: butt; stroke-dashoffset: 0; stroke-linejoin: miter; stroke-miterlimit: 4; fill: url(#SVGID_57130); fill-rule: nonzero; opacity: 1;" transform=" translate(-25.9, -42.77508922163761)" d="M 19.8 57.3 l 2.4 -21.5 A 8.9 8.9 0 0 1 25 30.5 a 1 1 0 0 1 0.5 -0.4 a 8.9 8.9 0 0 1 6.4 -1.9 H 32 L 29.7 49.8 a 8.8 8.8 0 0 1 -2.5 5 A 8.6 8.6 0 0 1 19.8 57.3 Z" stroke-linecap="round"/>
</g>
</g>
</g>
</g>
</g>
</svg>
